<svg xmlns="http://www.w3.org/2000/svg" viewBox="0 0 461.35 431.41"><defs><style>.cls-1{fill:#232952;stroke:#fff;stroke-miterlimit:10;}</style></defs><g id="Capa_2" data-name="Capa 2"><g id="Capa_1-2" data-name="Capa 1"><path class="cls-1" d="M57.84,48.47c-10.63,0-21,0-31.37,0a34.93,34.93,0,0,1-6.54-.54C7.56,45.5-.55,34.92.61,21.94A23.29,23.29,0,0,1,23.17.69c18.68-.21,37.36-.3,56,0C91.09.91,100,9.42,102,21.46c1.29,7.77,2.66,15.54,3.81,23.34.41,2.78,1.42,3.7,4.39,3.7q161.8-.14,323.6-.1c4.74,0,9.35.27,13.69,2.47a24.65,24.65,0,0,1,13.09,26c-3.33,22.3-6.49,44.63-9.72,67Q446.92,170.92,443,198c-2.14,14.92-4.2,29.85-6.38,44.76-1.78,12.2-11.32,20.5-23.68,20.76-1.5,0-3,0-4.49,0H142.39c.79,5,1.47,9.51,2.2,14a78.32,78.32,0,0,0,1.52,7.94,4,4,0,0,0,2.24,2,7.41,7.41,0,0,0,2.67.07H387.43c11.83,0,20.31,5.55,24.06,15.69a23.92,23.92,0,0,1-20.57,32c-1,.08-2,.09-3,.09H127.25c-9.6,0-17.18-4-21.68-12.43-2.25-4.19-3.38-9.15-4.21-13.91-3.74-21.32-7.22-42.7-10.75-64.06-3.74-22.54-7.4-45.09-11.16-67.63-3.42-20.57-6.94-41.13-10.38-61.7Q64,85.07,58.92,54.49C58.61,52.63,58.26,50.77,57.84,48.47Zm351.36,48c-1.21-.11-2.08-.25-2.95-.26q-43,0-86,0c-2.43,0-3,.82-3,3.11.08,13.78.1,27.56,0,41.33,0,2.67.82,3.38,3.43,3.36,14.18-.12,28.35,0,42.53,0,12.18,0,24.36-.05,36.54,0,2,0,2.94-.6,3.12-2.59s.52-4,.8-5.93C405.48,122.61,407.31,109.78,409.2,96.49Zm-294.74-.08,7.92,47.52h27.36c14.87,0,29.75-.07,44.62,0,2.62,0,3.41-.69,3.39-3.35-.12-13.67-.14-27.35,0-41,0-2.9-1-3.44-3.61-3.44-25.45.09-50.91,0-76.36.06C116.82,96.23,115.85,96.33,114.46,96.41ZM398.82,168.3a12.3,12.3,0,0,0-1.76-.29q-38.62,0-77.27,0c-2,0-2.52.89-2.51,2.73q.06,21.26,0,42.52c0,2,.73,2.56,2.65,2.55q34.89-.06,69.78,0c1.8,0,2.56-.42,2.83-2.41,1.59-11.77,3.38-23.5,5.07-35.25C398.07,174.88,398.41,171.64,398.82,168.3Zm-105.6,47.29c.09-.77.2-1.25.2-1.72,0-14.47,0-28.94.06-43.4,0-2.41-1.22-2.49-3-2.49q-33.08,0-66.15,0a21.45,21.45,0,0,0-2.47.27v47.31Zm-71.42-71.9c.8.09,1.37.22,1.95.22q33.54,0,67.09.05c2.21,0,2.64-.86,2.63-2.84-.06-13.88-.11-27.75,0-41.63,0-2.73-.86-3.33-3.41-3.32-21.76.09-43.53,0-65.29.06-1,0-1.92.13-3,.21Zm-95.37,24.49c2.55,15.39,5,30.23,7.43,45.08.32,2,1.23,2.53,3.19,2.53q28.75-.1,57.5,0c2.5,0,3.21-.74,3.19-3.21-.1-13.77-.12-27.55,0-41.32,0-2.7-.86-3.34-3.43-3.33-21.56.09-43.12.05-64.68.06C128.68,168,127.71,168.11,126.43,168.18Z"/><path class="cls-1" d="M126.1,394.91a35.81,35.81,0,1,1,35.54,36A35.59,35.59,0,0,1,126.1,394.91Z"/><path class="cls-1" d="M377.52,359.29a35.81,35.81,0,1,1-36.31,35A35.84,35.84,0,0,1,377.52,359.29Z"/></g></g></svg>